<mxfile host="app.diagrams.net" agent="Mozilla/5.0 (X11; Linux x86_64; rv:137.0) Gecko/20100101 Firefox/137.0" version="26.2.6">
  <diagram name="Page-1" id="WvvzXPZChAJE5FZuUv6l">
    <mxGraphModel dx="2530" dy="946" grid="1" gridSize="10" guides="1" tooltips="1" connect="1" arrows="1" fold="1" page="1" pageScale="1" pageWidth="850" pageHeight="1100" math="0" shadow="0">
      <root>
        <mxCell id="0" />
        <mxCell id="1" parent="0" />
        <mxCell id="gb6J2o0oBsIFemRSRKfW-39" style="edgeStyle=none;curved=1;rounded=0;orthogonalLoop=1;jettySize=auto;html=1;entryX=0;entryY=0.5;entryDx=0;entryDy=0;fontSize=12;startSize=8;endSize=8;endArrow=none;endFill=0;" parent="1" source="_D2f0YXhVKk2fQoGpz2m-1" target="gb6J2o0oBsIFemRSRKfW-20" edge="1">
          <mxGeometry relative="1" as="geometry" />
        </mxCell>
        <mxCell id="gb6J2o0oBsIFemRSRKfW-63" style="edgeStyle=none;curved=1;rounded=0;orthogonalLoop=1;jettySize=auto;html=1;entryX=0;entryY=0;entryDx=0;entryDy=0;fontSize=12;startSize=8;endSize=8;endArrow=none;endFill=0;" parent="1" source="k_iX1VzOe7PO-epXTxvh-1" target="gb6J2o0oBsIFemRSRKfW-4" edge="1">
          <mxGeometry relative="1" as="geometry">
            <Array as="points">
              <mxPoint x="240" y="930" />
            </Array>
          </mxGeometry>
        </mxCell>
        <mxCell id="gb6J2o0oBsIFemRSRKfW-67" style="edgeStyle=none;curved=1;rounded=0;orthogonalLoop=1;jettySize=auto;html=1;entryX=0;entryY=0.5;entryDx=0;entryDy=0;fontSize=12;startSize=8;endSize=8;endArrow=none;endFill=0;" parent="1" source="k_iX1VzOe7PO-epXTxvh-1" target="gb6J2o0oBsIFemRSRKfW-65" edge="1">
          <mxGeometry relative="1" as="geometry" />
        </mxCell>
        <mxCell id="gb6J2o0oBsIFemRSRKfW-73" style="edgeStyle=none;curved=1;rounded=0;orthogonalLoop=1;jettySize=auto;html=1;entryX=0;entryY=0.5;entryDx=0;entryDy=0;fontSize=12;startSize=8;endSize=8;endArrow=none;endFill=0;" parent="1" source="k_iX1VzOe7PO-epXTxvh-1" target="gb6J2o0oBsIFemRSRKfW-71" edge="1">
          <mxGeometry relative="1" as="geometry" />
        </mxCell>
        <mxCell id="_D2f0YXhVKk2fQoGpz2m-3" style="edgeStyle=none;curved=1;rounded=0;orthogonalLoop=1;jettySize=auto;html=1;fontSize=12;startSize=8;endSize=8;" parent="1" source="k_iX1VzOe7PO-epXTxvh-1" target="_D2f0YXhVKk2fQoGpz2m-1" edge="1">
          <mxGeometry relative="1" as="geometry" />
        </mxCell>
        <mxCell id="k_iX1VzOe7PO-epXTxvh-1" value="&lt;font style=&quot;font-size: 14px;&quot;&gt;Patient&lt;/font&gt;" style="shape=umlActor;verticalLabelPosition=bottom;verticalAlign=top;html=1;outlineConnect=0;" parent="1" vertex="1">
          <mxGeometry y="740" width="30" height="60" as="geometry" />
        </mxCell>
        <mxCell id="gb6J2o0oBsIFemRSRKfW-56" style="edgeStyle=none;curved=1;rounded=0;orthogonalLoop=1;jettySize=auto;html=1;entryX=0.5;entryY=0;entryDx=0;entryDy=0;fontSize=12;startSize=8;endSize=8;endArrow=none;endFill=0;" parent="1" source="k_iX1VzOe7PO-epXTxvh-12" target="gb6J2o0oBsIFemRSRKfW-54" edge="1">
          <mxGeometry relative="1" as="geometry" />
        </mxCell>
        <mxCell id="gb6J2o0oBsIFemRSRKfW-79" style="edgeStyle=none;curved=1;rounded=0;orthogonalLoop=1;jettySize=auto;html=1;entryX=1;entryY=0.5;entryDx=0;entryDy=0;fontSize=12;startSize=8;endSize=8;endArrow=none;endFill=0;" parent="1" source="k_iX1VzOe7PO-epXTxvh-8" target="gb6J2o0oBsIFemRSRKfW-78" edge="1">
          <mxGeometry relative="1" as="geometry" />
        </mxCell>
        <mxCell id="gb6J2o0oBsIFemRSRKfW-94" style="edgeStyle=none;curved=1;rounded=0;orthogonalLoop=1;jettySize=auto;html=1;fontSize=12;startSize=8;endSize=8;" parent="1" source="k_iX1VzOe7PO-epXTxvh-8" target="gb6J2o0oBsIFemRSRKfW-92" edge="1">
          <mxGeometry relative="1" as="geometry" />
        </mxCell>
        <mxCell id="k_iX1VzOe7PO-epXTxvh-8" value="&lt;font style=&quot;font-size: 14px;&quot;&gt;Technicien de labo&lt;/font&gt;" style="shape=umlActor;verticalLabelPosition=bottom;verticalAlign=top;html=1;outlineConnect=0;" parent="1" vertex="1">
          <mxGeometry x="800" y="790" width="30" height="60" as="geometry" />
        </mxCell>
        <mxCell id="gb6J2o0oBsIFemRSRKfW-72" style="edgeStyle=none;curved=1;rounded=0;orthogonalLoop=1;jettySize=auto;html=1;entryX=0;entryY=0.5;entryDx=0;entryDy=0;fontSize=12;startSize=8;endSize=8;endArrow=none;endFill=0;" parent="1" source="k_iX1VzOe7PO-epXTxvh-9" target="gb6J2o0oBsIFemRSRKfW-71" edge="1">
          <mxGeometry relative="1" as="geometry" />
        </mxCell>
        <mxCell id="gb6J2o0oBsIFemRSRKfW-77" style="edgeStyle=none;curved=1;rounded=0;orthogonalLoop=1;jettySize=auto;html=1;entryX=0;entryY=0.5;entryDx=0;entryDy=0;fontSize=12;startSize=8;endSize=8;endArrow=none;endFill=0;" parent="1" source="k_iX1VzOe7PO-epXTxvh-9" target="gb6J2o0oBsIFemRSRKfW-76" edge="1">
          <mxGeometry relative="1" as="geometry" />
        </mxCell>
        <mxCell id="k_iX1VzOe7PO-epXTxvh-9" value="&lt;font style=&quot;font-size: 14px;&quot;&gt;Infirmière&lt;/font&gt;" style="shape=umlActor;verticalLabelPosition=bottom;verticalAlign=top;html=1;outlineConnect=0;" parent="1" vertex="1">
          <mxGeometry x="10" y="600" width="30" height="60" as="geometry" />
        </mxCell>
        <mxCell id="gb6J2o0oBsIFemRSRKfW-26" style="edgeStyle=none;curved=1;rounded=0;orthogonalLoop=1;jettySize=auto;html=1;entryX=0;entryY=0.5;entryDx=0;entryDy=0;fontSize=12;startSize=8;endSize=8;endArrow=none;endFill=0;" parent="1" source="k_iX1VzOe7PO-epXTxvh-10" target="gb6J2o0oBsIFemRSRKfW-1" edge="1">
          <mxGeometry relative="1" as="geometry" />
        </mxCell>
        <mxCell id="gb6J2o0oBsIFemRSRKfW-38" style="edgeStyle=none;curved=1;rounded=0;orthogonalLoop=1;jettySize=auto;html=1;fontSize=12;startSize=8;endSize=8;endArrow=none;endFill=0;" parent="1" source="k_iX1VzOe7PO-epXTxvh-10" target="gb6J2o0oBsIFemRSRKfW-20" edge="1">
          <mxGeometry relative="1" as="geometry" />
        </mxCell>
        <mxCell id="gb6J2o0oBsIFemRSRKfW-45" style="edgeStyle=none;curved=1;rounded=0;orthogonalLoop=1;jettySize=auto;html=1;entryX=0;entryY=0.5;entryDx=0;entryDy=0;fontSize=12;startSize=8;endSize=8;endArrow=none;endFill=0;" parent="1" source="gb6J2o0oBsIFemRSRKfW-46" target="gb6J2o0oBsIFemRSRKfW-43" edge="1">
          <mxGeometry relative="1" as="geometry" />
        </mxCell>
        <mxCell id="gb6J2o0oBsIFemRSRKfW-57" style="edgeStyle=none;curved=1;rounded=0;orthogonalLoop=1;jettySize=auto;html=1;fontSize=12;startSize=8;endSize=8;" parent="1" source="k_iX1VzOe7PO-epXTxvh-10" target="gb6J2o0oBsIFemRSRKfW-46" edge="1">
          <mxGeometry relative="1" as="geometry">
            <Array as="points">
              <mxPoint x="-60" y="710" />
            </Array>
          </mxGeometry>
        </mxCell>
        <mxCell id="gb6J2o0oBsIFemRSRKfW-64" style="edgeStyle=none;curved=1;rounded=0;orthogonalLoop=1;jettySize=auto;html=1;entryX=0;entryY=0.5;entryDx=0;entryDy=0;fontSize=12;startSize=8;endSize=8;endArrow=none;endFill=0;" parent="1" source="k_iX1VzOe7PO-epXTxvh-10" target="gb6J2o0oBsIFemRSRKfW-4" edge="1">
          <mxGeometry relative="1" as="geometry">
            <Array as="points">
              <mxPoint x="170" y="1080" />
            </Array>
          </mxGeometry>
        </mxCell>
        <mxCell id="gb6J2o0oBsIFemRSRKfW-68" style="edgeStyle=none;curved=1;rounded=0;orthogonalLoop=1;jettySize=auto;html=1;entryX=0;entryY=0.5;entryDx=0;entryDy=0;fontSize=12;startSize=8;endSize=8;endArrow=none;endFill=0;" parent="1" source="k_iX1VzOe7PO-epXTxvh-10" target="gb6J2o0oBsIFemRSRKfW-65" edge="1">
          <mxGeometry relative="1" as="geometry" />
        </mxCell>
        <mxCell id="gb6J2o0oBsIFemRSRKfW-121" style="edgeStyle=none;curved=1;rounded=0;orthogonalLoop=1;jettySize=auto;html=1;entryX=0;entryY=0.5;entryDx=0;entryDy=0;fontSize=12;startSize=8;endSize=8;endArrow=none;endFill=0;" parent="1" source="k_iX1VzOe7PO-epXTxvh-10" target="gb6J2o0oBsIFemRSRKfW-120" edge="1">
          <mxGeometry relative="1" as="geometry" />
        </mxCell>
        <mxCell id="k_iX1VzOe7PO-epXTxvh-10" value="&lt;font style=&quot;font-size: 14px;&quot;&gt;Secrétaire&lt;/font&gt;" style="shape=umlActor;verticalLabelPosition=bottom;verticalAlign=top;html=1;outlineConnect=0;" parent="1" vertex="1">
          <mxGeometry x="-20" y="970" width="30" height="60" as="geometry" />
        </mxCell>
        <mxCell id="gb6J2o0oBsIFemRSRKfW-60" style="edgeStyle=none;curved=1;rounded=0;orthogonalLoop=1;jettySize=auto;html=1;fontSize=12;startSize=8;endSize=8;" parent="1" source="k_iX1VzOe7PO-epXTxvh-11" target="gb6J2o0oBsIFemRSRKfW-49" edge="1">
          <mxGeometry relative="1" as="geometry" />
        </mxCell>
        <mxCell id="gb6J2o0oBsIFemRSRKfW-100" style="edgeStyle=none;curved=1;rounded=0;orthogonalLoop=1;jettySize=auto;html=1;fontSize=12;startSize=8;endSize=8;" parent="1" source="k_iX1VzOe7PO-epXTxvh-11" target="gb6J2o0oBsIFemRSRKfW-95" edge="1">
          <mxGeometry relative="1" as="geometry">
            <Array as="points">
              <mxPoint x="410" y="150" />
            </Array>
          </mxGeometry>
        </mxCell>
        <mxCell id="gb6J2o0oBsIFemRSRKfW-107" style="edgeStyle=none;curved=1;rounded=0;orthogonalLoop=1;jettySize=auto;html=1;entryX=0.5;entryY=0;entryDx=0;entryDy=0;fontSize=12;startSize=8;endSize=8;endArrow=none;endFill=0;" parent="1" source="k_iX1VzOe7PO-epXTxvh-11" target="gb6J2o0oBsIFemRSRKfW-105" edge="1">
          <mxGeometry relative="1" as="geometry" />
        </mxCell>
        <mxCell id="k_iX1VzOe7PO-epXTxvh-11" value="&lt;font style=&quot;font-size: 14px;&quot;&gt;Responsable technique&lt;/font&gt;" style="shape=umlActor;verticalLabelPosition=bottom;verticalAlign=top;html=1;outlineConnect=0;" parent="1" vertex="1">
          <mxGeometry x="160" y="150" width="30" height="60" as="geometry" />
        </mxCell>
        <mxCell id="gb6J2o0oBsIFemRSRKfW-101" style="edgeStyle=none;curved=1;rounded=0;orthogonalLoop=1;jettySize=auto;html=1;fontSize=12;startSize=8;endSize=8;" parent="1" source="k_iX1VzOe7PO-epXTxvh-12" target="gb6J2o0oBsIFemRSRKfW-95" edge="1">
          <mxGeometry relative="1" as="geometry" />
        </mxCell>
        <mxCell id="gb6J2o0oBsIFemRSRKfW-117" style="edgeStyle=none;curved=1;rounded=0;orthogonalLoop=1;jettySize=auto;html=1;entryX=0;entryY=0;entryDx=0;entryDy=0;fontSize=12;startSize=8;endSize=8;endArrow=none;endFill=0;" parent="1" source="k_iX1VzOe7PO-epXTxvh-12" target="gb6J2o0oBsIFemRSRKfW-108" edge="1">
          <mxGeometry relative="1" as="geometry">
            <Array as="points">
              <mxPoint x="470" y="280" />
            </Array>
          </mxGeometry>
        </mxCell>
        <mxCell id="gb6J2o0oBsIFemRSRKfW-119" style="edgeStyle=none;curved=1;rounded=0;orthogonalLoop=1;jettySize=auto;html=1;entryX=0.5;entryY=0;entryDx=0;entryDy=0;fontSize=12;startSize=8;endSize=8;endArrow=none;endFill=0;" parent="1" source="k_iX1VzOe7PO-epXTxvh-12" target="gb6J2o0oBsIFemRSRKfW-118" edge="1">
          <mxGeometry relative="1" as="geometry" />
        </mxCell>
        <mxCell id="eYA-coJ9N5nNAs1sZXST-1" style="edgeStyle=orthogonalEdgeStyle;rounded=0;orthogonalLoop=1;jettySize=auto;html=1;entryX=0.5;entryY=0;entryDx=0;entryDy=0;curved=1;endArrow=none;startFill=0;" edge="1" parent="1" source="k_iX1VzOe7PO-epXTxvh-12" target="CItP-ptFmh_gp1jBUquw-1">
          <mxGeometry relative="1" as="geometry" />
        </mxCell>
        <mxCell id="k_iX1VzOe7PO-epXTxvh-12" value="&lt;font style=&quot;font-size: 14px;&quot;&gt;Médecin biologiste&lt;/font&gt;" style="shape=umlActor;verticalLabelPosition=bottom;verticalAlign=top;html=1;outlineConnect=0;" parent="1" vertex="1">
          <mxGeometry x="390" y="190" width="30" height="60" as="geometry" />
        </mxCell>
        <mxCell id="gb6J2o0oBsIFemRSRKfW-22" style="edgeStyle=none;curved=1;rounded=0;orthogonalLoop=1;jettySize=auto;html=1;entryX=0;entryY=1;entryDx=0;entryDy=0;fontSize=12;startSize=8;endSize=8;strokeColor=none;" parent="1" source="k_iX1VzOe7PO-epXTxvh-13" target="gb6J2o0oBsIFemRSRKfW-1" edge="1">
          <mxGeometry relative="1" as="geometry" />
        </mxCell>
        <mxCell id="gb6J2o0oBsIFemRSRKfW-25" style="edgeStyle=none;curved=1;rounded=0;orthogonalLoop=1;jettySize=auto;html=1;fontSize=12;startSize=8;endSize=8;endArrow=none;endFill=0;entryX=0;entryY=0.5;entryDx=0;entryDy=0;" parent="1" source="k_iX1VzOe7PO-epXTxvh-13" target="gb6J2o0oBsIFemRSRKfW-1" edge="1">
          <mxGeometry relative="1" as="geometry" />
        </mxCell>
        <mxCell id="_D2f0YXhVKk2fQoGpz2m-2" style="edgeStyle=none;curved=1;rounded=0;orthogonalLoop=1;jettySize=auto;html=1;fontSize=12;startSize=8;endSize=8;" parent="1" source="k_iX1VzOe7PO-epXTxvh-13" target="_D2f0YXhVKk2fQoGpz2m-1" edge="1">
          <mxGeometry relative="1" as="geometry">
            <Array as="points">
              <mxPoint x="-90" y="1000" />
            </Array>
          </mxGeometry>
        </mxCell>
        <mxCell id="k_iX1VzOe7PO-epXTxvh-13" value="&lt;font style=&quot;font-size: 14px;&quot;&gt;Patient potentiel&lt;/font&gt;" style="shape=umlActor;verticalLabelPosition=bottom;verticalAlign=top;html=1;outlineConnect=0;" parent="1" vertex="1">
          <mxGeometry x="-20" y="1115" width="30" height="60" as="geometry" />
        </mxCell>
        <mxCell id="k_iX1VzOe7PO-epXTxvh-16" value="&lt;font style=&quot;font-size: 14px;&quot;&gt;UCD: Gestion de laboratoire d&#39;analyse médicales&lt;/font&gt;" style="shape=umlFrame;whiteSpace=wrap;html=1;pointerEvents=0;width=200;height=40;" parent="1" vertex="1">
          <mxGeometry x="-60" y="120" width="1010" height="1150" as="geometry" />
        </mxCell>
        <mxCell id="IMAUrKQ4z0qamJaCJhXi-2" value="&lt;div&gt;&lt;font style=&quot;font-size: 14px;&quot;&gt;«actor»&lt;b style=&quot;&quot;&gt;&lt;br&gt;&lt;/b&gt;&lt;/font&gt;&lt;/div&gt;&lt;div&gt;&lt;b&gt;&lt;font style=&quot;font-size: 14px;&quot;&gt;Système de payement&lt;/font&gt;&lt;/b&gt;&lt;/div&gt;" style="html=1;whiteSpace=wrap;" parent="1" vertex="1">
          <mxGeometry x="770" y="1010" width="110" height="70" as="geometry" />
        </mxCell>
        <mxCell id="gb6J2o0oBsIFemRSRKfW-2" value="" style="swimlane;startSize=0;swimlaneFillColor=none;fillColor=#f8cecc;strokeColor=#b85450;strokeWidth=2;" parent="1" vertex="1">
          <mxGeometry x="120" y="320" width="630" height="920" as="geometry">
            <mxRectangle x="120" y="320" width="50" height="40" as="alternateBounds" />
          </mxGeometry>
        </mxCell>
        <mxCell id="_D2f0YXhVKk2fQoGpz2m-5" style="edgeStyle=none;curved=1;rounded=0;orthogonalLoop=1;jettySize=auto;html=1;entryX=0.5;entryY=1;entryDx=0;entryDy=0;fontSize=12;startSize=8;endSize=8;dashed=1;" parent="gb6J2o0oBsIFemRSRKfW-2" source="gb6J2o0oBsIFemRSRKfW-1" target="gb6J2o0oBsIFemRSRKfW-20" edge="1">
          <mxGeometry relative="1" as="geometry" />
        </mxCell>
        <mxCell id="_D2f0YXhVKk2fQoGpz2m-6" value="&amp;lt;&amp;lt;extend&amp;gt;&amp;gt;" style="edgeLabel;html=1;align=center;verticalAlign=middle;resizable=0;points=[];fontSize=12;" parent="_D2f0YXhVKk2fQoGpz2m-5" vertex="1" connectable="0">
          <mxGeometry x="-0.2423" y="-1" relative="1" as="geometry">
            <mxPoint as="offset" />
          </mxGeometry>
        </mxCell>
        <mxCell id="gb6J2o0oBsIFemRSRKfW-1" value="&lt;font style=&quot;font-size: 13px;&quot;&gt;Inscription&lt;/font&gt;" style="ellipse;whiteSpace=wrap;html=1;fillStyle=auto;strokeColor=#ff0000;strokeWidth=2;align=center;verticalAlign=middle;fontFamily=Helvetica;fontSize=12;fontColor=default;fillColor=none;" parent="gb6J2o0oBsIFemRSRKfW-2" vertex="1">
          <mxGeometry x="10" y="810" width="90" height="30" as="geometry" />
        </mxCell>
        <mxCell id="gb6J2o0oBsIFemRSRKfW-36" style="edgeStyle=none;curved=1;rounded=0;orthogonalLoop=1;jettySize=auto;html=1;fontSize=12;startSize=8;endSize=8;dashed=1;endArrow=open;endFill=0;" parent="gb6J2o0oBsIFemRSRKfW-2" source="gb6J2o0oBsIFemRSRKfW-4" target="gb6J2o0oBsIFemRSRKfW-20" edge="1">
          <mxGeometry relative="1" as="geometry" />
        </mxCell>
        <mxCell id="gb6J2o0oBsIFemRSRKfW-37" value="&lt;font style=&quot;font-size: 13px;&quot;&gt;&amp;lt;&amp;lt;extend&amp;gt;&amp;gt;&lt;/font&gt;" style="edgeLabel;html=1;align=center;verticalAlign=middle;resizable=0;points=[];fontSize=12;" parent="gb6J2o0oBsIFemRSRKfW-36" vertex="1" connectable="0">
          <mxGeometry x="-0.0595" y="1" relative="1" as="geometry">
            <mxPoint x="-20" y="-25" as="offset" />
          </mxGeometry>
        </mxCell>
        <mxCell id="DCeOFjuLgUm3dpClydq4-11" style="edgeStyle=none;curved=1;rounded=0;orthogonalLoop=1;jettySize=auto;html=1;entryX=0.5;entryY=1;entryDx=0;entryDy=0;fontSize=12;startSize=8;endSize=8;dashed=1;" parent="gb6J2o0oBsIFemRSRKfW-2" source="gb6J2o0oBsIFemRSRKfW-4" target="DCeOFjuLgUm3dpClydq4-1" edge="1">
          <mxGeometry relative="1" as="geometry" />
        </mxCell>
        <mxCell id="DCeOFjuLgUm3dpClydq4-12" value="&amp;lt;&amp;lt;include&amp;gt;&amp;gt;" style="edgeLabel;html=1;align=center;verticalAlign=middle;resizable=0;points=[];fontSize=12;" parent="DCeOFjuLgUm3dpClydq4-11" vertex="1" connectable="0">
          <mxGeometry x="-0.2532" relative="1" as="geometry">
            <mxPoint y="-14" as="offset" />
          </mxGeometry>
        </mxCell>
        <mxCell id="gb6J2o0oBsIFemRSRKfW-4" value="&lt;font style=&quot;font-size: 13px;&quot;&gt;Payer&lt;/font&gt;" style="ellipse;whiteSpace=wrap;html=1;fillStyle=auto;strokeColor=#ff0000;strokeWidth=2;align=center;verticalAlign=middle;fontFamily=Helvetica;fontSize=12;fontColor=default;fillColor=none;" parent="gb6J2o0oBsIFemRSRKfW-2" vertex="1">
          <mxGeometry x="250" y="760" width="90" height="30" as="geometry" />
        </mxCell>
        <mxCell id="gb6J2o0oBsIFemRSRKfW-17" style="edgeStyle=none;curved=1;rounded=0;orthogonalLoop=1;jettySize=auto;html=1;fontSize=12;startSize=8;endSize=8;entryX=0;entryY=1;entryDx=0;entryDy=0;" parent="gb6J2o0oBsIFemRSRKfW-2" source="gb6J2o0oBsIFemRSRKfW-11" target="gb6J2o0oBsIFemRSRKfW-4" edge="1">
          <mxGeometry relative="1" as="geometry" />
        </mxCell>
        <mxCell id="gb6J2o0oBsIFemRSRKfW-11" value="&lt;font style=&quot;font-size: 13px;&quot;&gt;Payer en espèces&lt;/font&gt;" style="ellipse;whiteSpace=wrap;html=1;" parent="gb6J2o0oBsIFemRSRKfW-2" vertex="1">
          <mxGeometry x="117.5" y="835" width="92.5" height="40" as="geometry" />
        </mxCell>
        <mxCell id="gb6J2o0oBsIFemRSRKfW-18" style="edgeStyle=none;curved=1;rounded=0;orthogonalLoop=1;jettySize=auto;html=1;fontSize=12;startSize=8;endSize=8;entryX=0.5;entryY=1;entryDx=0;entryDy=0;" parent="gb6J2o0oBsIFemRSRKfW-2" source="gb6J2o0oBsIFemRSRKfW-10" target="gb6J2o0oBsIFemRSRKfW-4" edge="1">
          <mxGeometry relative="1" as="geometry" />
        </mxCell>
        <mxCell id="gb6J2o0oBsIFemRSRKfW-10" value="&lt;font style=&quot;font-size: 13px;&quot;&gt;Payer avec carte bancaire&lt;/font&gt;" style="ellipse;whiteSpace=wrap;html=1;" parent="gb6J2o0oBsIFemRSRKfW-2" vertex="1">
          <mxGeometry x="210" y="847.5" width="120" height="45" as="geometry" />
        </mxCell>
        <mxCell id="gb6J2o0oBsIFemRSRKfW-19" style="edgeStyle=none;curved=1;rounded=0;orthogonalLoop=1;jettySize=auto;html=1;entryX=1;entryY=1;entryDx=0;entryDy=0;fontSize=12;startSize=8;endSize=8;" parent="gb6J2o0oBsIFemRSRKfW-2" source="gb6J2o0oBsIFemRSRKfW-9" target="gb6J2o0oBsIFemRSRKfW-4" edge="1">
          <mxGeometry relative="1" as="geometry" />
        </mxCell>
        <mxCell id="gb6J2o0oBsIFemRSRKfW-9" value="&lt;font style=&quot;font-size: 13px;&quot;&gt;Payer par virement bancaire&lt;/font&gt;" style="ellipse;whiteSpace=wrap;html=1;" parent="gb6J2o0oBsIFemRSRKfW-2" vertex="1">
          <mxGeometry x="340" y="832.5" width="90" height="60" as="geometry" />
        </mxCell>
        <mxCell id="gb6J2o0oBsIFemRSRKfW-20" value="&lt;font style=&quot;font-size: 13px;&quot;&gt;Demander analyse(s)&lt;/font&gt;" style="ellipse;whiteSpace=wrap;html=1;fillStyle=auto;strokeColor=#ff0000;strokeWidth=2;align=center;verticalAlign=middle;fontFamily=Helvetica;fontSize=12;fontColor=#333333;fillColor=#f5f5f5;" parent="gb6J2o0oBsIFemRSRKfW-2" vertex="1">
          <mxGeometry x="100" y="570" width="90" height="40" as="geometry" />
        </mxCell>
        <mxCell id="gb6J2o0oBsIFemRSRKfW-43" value="Gestion des patients&lt;br&gt;&lt;b&gt;{C.R.U,A}&lt;/b&gt;" style="ellipse;whiteSpace=wrap;html=1;fillStyle=auto;fillColor=#d5e8d4;strokeColor=#ff0000;strokeWidth=2;" parent="gb6J2o0oBsIFemRSRKfW-2" vertex="1">
          <mxGeometry x="40" y="130" width="90" height="60" as="geometry" />
        </mxCell>
        <mxCell id="gb6J2o0oBsIFemRSRKfW-48" value="&lt;font style=&quot;font-size: 13px;&quot;&gt;Gestion des patients&lt;br&gt;&lt;b&gt;{Delete}&lt;/b&gt;&lt;/font&gt;" style="ellipse;whiteSpace=wrap;html=1;fillStyle=auto;fillColor=none;strokeColor=#ff0000;strokeWidth=2;" parent="gb6J2o0oBsIFemRSRKfW-2" vertex="1">
          <mxGeometry x="10" y="30" width="90" height="70" as="geometry" />
        </mxCell>
        <mxCell id="gb6J2o0oBsIFemRSRKfW-89" style="edgeStyle=none;curved=1;rounded=0;orthogonalLoop=1;jettySize=auto;html=1;entryX=0;entryY=0;entryDx=0;entryDy=0;fontSize=12;startSize=8;endSize=8;dashed=1;endArrow=none;endFill=0;" parent="gb6J2o0oBsIFemRSRKfW-2" source="gb6J2o0oBsIFemRSRKfW-52" target="gb6J2o0oBsIFemRSRKfW-88" edge="1">
          <mxGeometry relative="1" as="geometry" />
        </mxCell>
        <mxCell id="gb6J2o0oBsIFemRSRKfW-52" value="&lt;b&gt;A&lt;/b&gt; pour archiver" style="shape=note;strokeWidth=2;fontSize=14;size=20;whiteSpace=wrap;html=1;fillColor=#fff2cc;strokeColor=#d6b656;fontColor=#666600;" parent="gb6J2o0oBsIFemRSRKfW-2" vertex="1">
          <mxGeometry x="180" y="200" width="110" height="50" as="geometry" />
        </mxCell>
        <mxCell id="gb6J2o0oBsIFemRSRKfW-53" style="edgeStyle=none;curved=1;rounded=0;orthogonalLoop=1;jettySize=auto;html=1;entryX=1;entryY=0.5;entryDx=0;entryDy=0;fontSize=12;startSize=8;endSize=8;dashed=1;endArrow=none;endFill=0;" parent="gb6J2o0oBsIFemRSRKfW-2" source="gb6J2o0oBsIFemRSRKfW-52" target="gb6J2o0oBsIFemRSRKfW-43" edge="1">
          <mxGeometry relative="1" as="geometry" />
        </mxCell>
        <mxCell id="gb6J2o0oBsIFemRSRKfW-54" value="&lt;font style=&quot;font-size: 13px;&quot;&gt;Gestion du personnel de labo&lt;br&gt;&lt;b&gt;{C.R.U,A,D}&lt;/b&gt;&lt;/font&gt;" style="ellipse;whiteSpace=wrap;html=1;fillStyle=auto;fillColor=#d5e8d4;strokeColor=#ff0000;strokeWidth=2;" parent="gb6J2o0oBsIFemRSRKfW-2" vertex="1">
          <mxGeometry x="205" y="6" width="100" height="80" as="geometry" />
        </mxCell>
        <mxCell id="DCeOFjuLgUm3dpClydq4-4" style="edgeStyle=none;curved=1;rounded=0;orthogonalLoop=1;jettySize=auto;html=1;entryX=0;entryY=0.5;entryDx=0;entryDy=0;fontSize=12;startSize=8;endSize=8;dashed=1;" parent="gb6J2o0oBsIFemRSRKfW-2" source="gb6J2o0oBsIFemRSRKfW-65" target="DCeOFjuLgUm3dpClydq4-1" edge="1">
          <mxGeometry relative="1" as="geometry" />
        </mxCell>
        <mxCell id="DCeOFjuLgUm3dpClydq4-5" value="&amp;lt;&amp;lt;include&amp;gt;&amp;gt;" style="edgeLabel;html=1;align=center;verticalAlign=middle;resizable=0;points=[];fontSize=12;" parent="DCeOFjuLgUm3dpClydq4-4" vertex="1" connectable="0">
          <mxGeometry x="0.2124" y="1" relative="1" as="geometry">
            <mxPoint x="13" y="6" as="offset" />
          </mxGeometry>
        </mxCell>
        <mxCell id="gb6J2o0oBsIFemRSRKfW-65" value="&lt;font style=&quot;font-size: 13px;&quot;&gt;Demander rapport(s) d&#39;analyse(s)&lt;/font&gt;" style="ellipse;whiteSpace=wrap;html=1;fillStyle=auto;strokeColor=#ff0000;strokeWidth=2;align=center;verticalAlign=middle;fontFamily=Helvetica;fontSize=12;fontColor=default;fillColor=none;" parent="gb6J2o0oBsIFemRSRKfW-2" vertex="1">
          <mxGeometry x="82.5" y="480" width="110" height="50" as="geometry" />
        </mxCell>
        <mxCell id="gb6J2o0oBsIFemRSRKfW-69" value="&lt;font style=&quot;font-size: 13px;&quot;&gt;Consulter Rapport(s)&lt;/font&gt;" style="ellipse;whiteSpace=wrap;html=1;fillStyle=auto;strokeColor=#ff0000;strokeWidth=2;align=center;verticalAlign=middle;fontFamily=Helvetica;fontSize=12;fontColor=default;fillColor=none;" parent="gb6J2o0oBsIFemRSRKfW-2" vertex="1">
          <mxGeometry x="65" y="220" width="95" height="40" as="geometry" />
        </mxCell>
        <mxCell id="hzV9YB1RSuVRZrryX4KR-2" style="edgeStyle=none;curved=1;rounded=0;orthogonalLoop=1;jettySize=auto;html=1;entryX=0.221;entryY=0;entryDx=0;entryDy=0;fontSize=12;startSize=8;endSize=8;dashed=1;exitX=1;exitY=0.5;exitDx=0;exitDy=0;entryPerimeter=0;" parent="gb6J2o0oBsIFemRSRKfW-2" source="gb6J2o0oBsIFemRSRKfW-71" target="DCeOFjuLgUm3dpClydq4-1" edge="1">
          <mxGeometry relative="1" as="geometry">
            <Array as="points">
              <mxPoint x="240" y="455" />
            </Array>
          </mxGeometry>
        </mxCell>
        <mxCell id="hzV9YB1RSuVRZrryX4KR-3" value="&amp;lt;&amp;lt;include&amp;gt;&amp;gt;" style="edgeLabel;html=1;align=center;verticalAlign=middle;resizable=0;points=[];fontSize=12;" parent="hzV9YB1RSuVRZrryX4KR-2" vertex="1" connectable="0">
          <mxGeometry x="0.1883" y="-29" relative="1" as="geometry">
            <mxPoint x="-28" y="-25" as="offset" />
          </mxGeometry>
        </mxCell>
        <mxCell id="gb6J2o0oBsIFemRSRKfW-71" value="&lt;font style=&quot;font-size: 13px;&quot;&gt;Prélever du sang&lt;/font&gt;" style="ellipse;whiteSpace=wrap;html=1;fillStyle=auto;strokeColor=#ff0000;strokeWidth=2;align=center;verticalAlign=middle;fontFamily=Helvetica;fontSize=12;fontColor=default;fillColor=none;" parent="gb6J2o0oBsIFemRSRKfW-2" vertex="1">
          <mxGeometry x="10" y="380" width="90" height="50" as="geometry" />
        </mxCell>
        <mxCell id="gb6J2o0oBsIFemRSRKfW-76" value="&lt;font style=&quot;font-size: 13px;&quot;&gt;Alerter stock faible de tubes à prélèvement&lt;/font&gt;" style="ellipse;whiteSpace=wrap;html=1;fillStyle=auto;strokeColor=#ff0000;strokeWidth=2;align=center;verticalAlign=middle;fontFamily=Helvetica;fontSize=12;fontColor=default;fillColor=none;" parent="gb6J2o0oBsIFemRSRKfW-2" vertex="1">
          <mxGeometry x="40" y="290" width="140" height="70" as="geometry" />
        </mxCell>
        <mxCell id="gb6J2o0oBsIFemRSRKfW-84" style="edgeStyle=none;curved=1;rounded=0;orthogonalLoop=1;jettySize=auto;html=1;entryX=0.5;entryY=1;entryDx=0;entryDy=0;fontSize=12;startSize=8;endSize=8;dashed=1;" parent="gb6J2o0oBsIFemRSRKfW-2" source="gb6J2o0oBsIFemRSRKfW-78" target="gb6J2o0oBsIFemRSRKfW-83" edge="1">
          <mxGeometry relative="1" as="geometry" />
        </mxCell>
        <mxCell id="gb6J2o0oBsIFemRSRKfW-85" value="&lt;font style=&quot;font-size: 13px;&quot;&gt;&amp;lt;&amp;lt;include&amp;gt;&amp;gt;&lt;/font&gt;" style="edgeLabel;html=1;align=center;verticalAlign=middle;resizable=0;points=[];fontSize=12;" parent="gb6J2o0oBsIFemRSRKfW-84" vertex="1" connectable="0">
          <mxGeometry x="-0.0691" y="1" relative="1" as="geometry">
            <mxPoint as="offset" />
          </mxGeometry>
        </mxCell>
        <mxCell id="gb6J2o0oBsIFemRSRKfW-78" value="&lt;font style=&quot;font-size: 13px;&quot;&gt;Analyser prélèvement de sang&lt;/font&gt;" style="ellipse;whiteSpace=wrap;html=1;fillColor=#f5f5f5;strokeColor=#666666;fontColor=#333333;" parent="gb6J2o0oBsIFemRSRKfW-2" vertex="1">
          <mxGeometry x="437.5" y="520" width="110" height="60" as="geometry" />
        </mxCell>
        <mxCell id="gb6J2o0oBsIFemRSRKfW-82" style="edgeStyle=none;curved=1;rounded=0;orthogonalLoop=1;jettySize=auto;html=1;entryX=0;entryY=0.5;entryDx=0;entryDy=0;fontSize=12;startSize=8;endSize=8;endArrow=none;endFill=0;dashed=1;" parent="gb6J2o0oBsIFemRSRKfW-2" source="gb6J2o0oBsIFemRSRKfW-81" target="gb6J2o0oBsIFemRSRKfW-78" edge="1">
          <mxGeometry relative="1" as="geometry" />
        </mxCell>
        <mxCell id="P53VrebgDwGa3EQRWFaQ-1" style="edgeStyle=none;curved=1;rounded=0;orthogonalLoop=1;jettySize=auto;html=1;entryX=1;entryY=0;entryDx=0;entryDy=0;fontSize=12;startSize=8;endSize=8;endArrow=none;endFill=0;dashed=1;" parent="gb6J2o0oBsIFemRSRKfW-2" source="gb6J2o0oBsIFemRSRKfW-81" target="gb6J2o0oBsIFemRSRKfW-20" edge="1">
          <mxGeometry relative="1" as="geometry" />
        </mxCell>
        <mxCell id="gb6J2o0oBsIFemRSRKfW-81" value="&lt;b&gt;Abstract US&lt;/b&gt;&lt;br&gt;(Types d&#39;analyses restant à identifier)" style="shape=note;strokeWidth=2;fontSize=14;size=20;whiteSpace=wrap;html=1;fillColor=#fff2cc;strokeColor=#d6b656;fontColor=#666600;" parent="gb6J2o0oBsIFemRSRKfW-2" vertex="1">
          <mxGeometry x="255" y="390" width="140" height="70" as="geometry" />
        </mxCell>
        <mxCell id="gb6J2o0oBsIFemRSRKfW-83" value="&lt;font style=&quot;font-size: 13px;&quot;&gt;Générer rapport&lt;/font&gt;" style="ellipse;whiteSpace=wrap;html=1;fillStyle=auto;strokeColor=#ff0000;strokeWidth=2;align=center;verticalAlign=middle;fontFamily=Helvetica;fontSize=12;fontColor=default;fillColor=none;" parent="gb6J2o0oBsIFemRSRKfW-2" vertex="1">
          <mxGeometry x="427.5" y="430" width="110" height="40" as="geometry" />
        </mxCell>
        <mxCell id="gb6J2o0oBsIFemRSRKfW-88" value="&lt;font style=&quot;font-size: 13px;&quot;&gt;Gestion des rapports&lt;br&gt;&lt;b&gt;{C.R.U,A}&lt;/b&gt;&lt;/font&gt;" style="ellipse;whiteSpace=wrap;html=1;fillStyle=auto;fillColor=#d5e8d4;strokeColor=#ff0000;strokeWidth=2;" parent="gb6J2o0oBsIFemRSRKfW-2" vertex="1">
          <mxGeometry x="270" y="290" width="100" height="70" as="geometry" />
        </mxCell>
        <mxCell id="gb6J2o0oBsIFemRSRKfW-98" value="&lt;font style=&quot;font-size: 13px;&quot;&gt;Gestion des rapports&lt;br&gt;&lt;b&gt;{Delete}&lt;/b&gt;&lt;/font&gt;" style="ellipse;whiteSpace=wrap;html=1;fillStyle=auto;fillColor=none;strokeColor=#ff0000;strokeWidth=2;align=center;verticalAlign=middle;fontFamily=Helvetica;fontSize=12;fontColor=default;" parent="gb6J2o0oBsIFemRSRKfW-2" vertex="1">
          <mxGeometry x="440" y="163" width="90" height="60" as="geometry" />
        </mxCell>
        <mxCell id="gb6J2o0oBsIFemRSRKfW-105" value="&lt;font style=&quot;font-size: 13px;&quot;&gt;Valider techniquement le rapport&lt;/font&gt;" style="ellipse;whiteSpace=wrap;html=1;fillStyle=auto;strokeColor=#ff0000;strokeWidth=2;align=center;verticalAlign=middle;fontFamily=Helvetica;fontSize=12;fontColor=default;fillColor=none;" parent="gb6J2o0oBsIFemRSRKfW-2" vertex="1">
          <mxGeometry x="92.5" y="80" width="100" height="50" as="geometry" />
        </mxCell>
        <mxCell id="gb6J2o0oBsIFemRSRKfW-108" value="&lt;font style=&quot;font-size: 13px;&quot;&gt;Valider logiquement le rapport&lt;/font&gt;" style="ellipse;whiteSpace=wrap;html=1;fillStyle=auto;strokeColor=#ff0000;strokeWidth=2;align=center;verticalAlign=middle;fontFamily=Helvetica;fontSize=12;fontColor=default;fillColor=none;" parent="gb6J2o0oBsIFemRSRKfW-2" vertex="1">
          <mxGeometry x="340" y="20" width="100" height="50" as="geometry" />
        </mxCell>
        <mxCell id="gb6J2o0oBsIFemRSRKfW-111" value="&lt;font style=&quot;font-size: 13px;&quot;&gt;Consulter statistiques du système&lt;/font&gt;" style="ellipse;whiteSpace=wrap;html=1;fillStyle=auto;strokeColor=#ff0000;strokeWidth=2;align=center;verticalAlign=middle;fontFamily=Helvetica;fontSize=12;fontColor=default;fillColor=none;" parent="gb6J2o0oBsIFemRSRKfW-2" vertex="1">
          <mxGeometry x="490" y="270" width="100" height="50" as="geometry" />
        </mxCell>
        <mxCell id="gb6J2o0oBsIFemRSRKfW-118" value="&lt;font style=&quot;font-size: 13px;&quot;&gt;Consulter statistiques de labo et patient(s)&lt;/font&gt;" style="ellipse;whiteSpace=wrap;html=1;fillStyle=auto;strokeColor=#ff0000;strokeWidth=2;align=center;verticalAlign=middle;fontFamily=Helvetica;fontSize=12;fontColor=default;fillColor=none;" parent="gb6J2o0oBsIFemRSRKfW-2" vertex="1">
          <mxGeometry x="270" y="86" width="120" height="64" as="geometry" />
        </mxCell>
        <mxCell id="gb6J2o0oBsIFemRSRKfW-125" style="edgeStyle=none;curved=1;rounded=0;orthogonalLoop=1;jettySize=auto;html=1;entryX=0;entryY=1;entryDx=0;entryDy=0;fontSize=12;startSize=8;endSize=8;dashed=1;" parent="gb6J2o0oBsIFemRSRKfW-2" source="gb6J2o0oBsIFemRSRKfW-120" target="gb6J2o0oBsIFemRSRKfW-65" edge="1">
          <mxGeometry relative="1" as="geometry" />
        </mxCell>
        <mxCell id="gb6J2o0oBsIFemRSRKfW-126" value="&lt;font style=&quot;font-size: 13px;&quot;&gt;&amp;lt;&amp;lt;extend&amp;gt;&amp;gt;&lt;/font&gt;" style="edgeLabel;html=1;align=center;verticalAlign=middle;resizable=0;points=[];fontSize=12;" parent="gb6J2o0oBsIFemRSRKfW-125" vertex="1" connectable="0">
          <mxGeometry x="-0.424" y="3" relative="1" as="geometry">
            <mxPoint x="-5" y="17" as="offset" />
          </mxGeometry>
        </mxCell>
        <mxCell id="gb6J2o0oBsIFemRSRKfW-120" value="&lt;font style=&quot;font-size: 13px;&quot;&gt;Rendre rapport au patient&lt;/font&gt;" style="ellipse;whiteSpace=wrap;html=1;fillStyle=auto;strokeColor=#666666;strokeWidth=2;align=center;verticalAlign=middle;fontFamily=Helvetica;fontSize=12;fontColor=#333333;fillColor=#f5f5f5;" parent="gb6J2o0oBsIFemRSRKfW-2" vertex="1">
          <mxGeometry x="10" y="660" width="90" height="60" as="geometry" />
        </mxCell>
        <mxCell id="gb6J2o0oBsIFemRSRKfW-124" style="edgeStyle=none;curved=1;rounded=0;orthogonalLoop=1;jettySize=auto;html=1;entryX=1;entryY=0.5;entryDx=0;entryDy=0;fontSize=12;startSize=8;endSize=8;dashed=1;endArrow=none;endFill=0;" parent="gb6J2o0oBsIFemRSRKfW-2" source="gb6J2o0oBsIFemRSRKfW-123" target="gb6J2o0oBsIFemRSRKfW-120" edge="1">
          <mxGeometry relative="1" as="geometry" />
        </mxCell>
        <mxCell id="gb6J2o0oBsIFemRSRKfW-123" value="&lt;b&gt;Abstract US&lt;/b&gt;&lt;br&gt;(Methodes pour rendre: &lt;b&gt;{Email, Whatsapp, en personne}&lt;/b&gt;)" style="shape=note;strokeWidth=2;fontSize=14;size=20;whiteSpace=wrap;html=1;fillColor=#fff2cc;strokeColor=#d6b656;fontColor=#666600;" parent="gb6J2o0oBsIFemRSRKfW-2" vertex="1">
          <mxGeometry x="360" y="670" width="155" height="80" as="geometry" />
        </mxCell>
        <mxCell id="WKFzbWIg47_HYz6-QAsh-2" value="&lt;font style=&quot;font-size: 13px;&quot;&gt;Valider authentification&lt;/font&gt;" style="ellipse;whiteSpace=wrap;html=1;" parent="gb6J2o0oBsIFemRSRKfW-2" vertex="1">
          <mxGeometry x="490" y="770" width="122" height="45" as="geometry" />
        </mxCell>
        <mxCell id="WKFzbWIg47_HYz6-QAsh-3" value="&lt;font style=&quot;font-size: 13px;&quot;&gt;&amp;nbsp;S&#39;authentifier&lt;/font&gt;" style="ellipse;whiteSpace=wrap;html=1;" parent="gb6J2o0oBsIFemRSRKfW-2" vertex="1">
          <mxGeometry x="490" y="860" width="122" height="45" as="geometry" />
        </mxCell>
        <mxCell id="WKFzbWIg47_HYz6-QAsh-5" style="edgeStyle=none;curved=1;rounded=0;orthogonalLoop=1;jettySize=auto;html=1;fontSize=12;startSize=8;endSize=8;dashed=1;endArrow=none;endFill=0;startArrow=classic;startFill=1;" parent="gb6J2o0oBsIFemRSRKfW-2" source="WKFzbWIg47_HYz6-QAsh-2" target="WKFzbWIg47_HYz6-QAsh-3" edge="1">
          <mxGeometry relative="1" as="geometry">
            <mxPoint x="585.5" y="765" as="sourcePoint" />
            <mxPoint x="494.5" y="975" as="targetPoint" />
          </mxGeometry>
        </mxCell>
        <mxCell id="WKFzbWIg47_HYz6-QAsh-6" value="&lt;font style=&quot;font-size: 13px;&quot;&gt;&amp;lt;&amp;lt;extend&amp;gt;&amp;gt;&lt;/font&gt;" style="edgeLabel;html=1;align=center;verticalAlign=middle;resizable=0;points=[];fontSize=12;" parent="WKFzbWIg47_HYz6-QAsh-5" vertex="1" connectable="0">
          <mxGeometry x="-0.0437" y="1" relative="1" as="geometry">
            <mxPoint y="1" as="offset" />
          </mxGeometry>
        </mxCell>
        <mxCell id="DCeOFjuLgUm3dpClydq4-1" value="&lt;font style=&quot;font-size: 13px;&quot;&gt;Identifier patient&lt;/font&gt;" style="ellipse;whiteSpace=wrap;html=1;strokeColor=#ff0000;strokeWidth=2;" parent="gb6J2o0oBsIFemRSRKfW-2" vertex="1">
          <mxGeometry x="257" y="565" width="126" height="35" as="geometry" />
        </mxCell>
        <mxCell id="DCeOFjuLgUm3dpClydq4-9" style="edgeStyle=none;curved=1;rounded=0;orthogonalLoop=1;jettySize=auto;html=1;entryX=0.221;entryY=0.822;entryDx=0;entryDy=0;entryPerimeter=0;fontSize=12;startSize=8;endSize=8;dashed=1;" parent="gb6J2o0oBsIFemRSRKfW-2" source="gb6J2o0oBsIFemRSRKfW-1" target="DCeOFjuLgUm3dpClydq4-1" edge="1">
          <mxGeometry relative="1" as="geometry">
            <Array as="points">
              <mxPoint x="200" y="760" />
            </Array>
          </mxGeometry>
        </mxCell>
        <mxCell id="DCeOFjuLgUm3dpClydq4-10" value="&amp;lt;&amp;lt;extend&amp;gt;&amp;gt;" style="edgeLabel;html=1;align=center;verticalAlign=middle;resizable=0;points=[];fontSize=12;" parent="DCeOFjuLgUm3dpClydq4-9" vertex="1" connectable="0">
          <mxGeometry x="-0.0364" y="2" relative="1" as="geometry">
            <mxPoint x="-10" y="-16" as="offset" />
          </mxGeometry>
        </mxCell>
        <mxCell id="CItP-ptFmh_gp1jBUquw-1" value="Renouvler le stock" style="ellipse;whiteSpace=wrap;html=1;fillStyle=auto;strokeColor=#ff0000;strokeWidth=2;align=center;verticalAlign=middle;fontFamily=Helvetica;fontSize=12;fontColor=default;fillColor=none;" parent="gb6J2o0oBsIFemRSRKfW-2" vertex="1">
          <mxGeometry x="450" y="30" width="120" height="47" as="geometry" />
        </mxCell>
        <mxCell id="gb6J2o0oBsIFemRSRKfW-3" value="&lt;b&gt;&lt;font style=&quot;font-size: 15px;&quot;&gt;S.I:&amp;nbsp;Gestion de&amp;nbsp; laboratoire&amp;nbsp; d&#39;analyse médicales&lt;/font&gt;&lt;/b&gt;" style="text;html=1;align=center;verticalAlign=middle;whiteSpace=wrap;rounded=0;fontSize=16;fillColor=none;" parent="1" vertex="1">
          <mxGeometry x="258" y="290" width="373" height="30" as="geometry" />
        </mxCell>
        <mxCell id="gb6J2o0oBsIFemRSRKfW-13" value="" style="endArrow=none;html=1;rounded=0;fontSize=12;startSize=8;endSize=8;curved=1;entryX=0;entryY=0.5;entryDx=0;entryDy=0;exitX=1;exitY=0.5;exitDx=0;exitDy=0;" parent="1" source="gb6J2o0oBsIFemRSRKfW-4" target="IMAUrKQ4z0qamJaCJhXi-2" edge="1">
          <mxGeometry width="50" height="50" relative="1" as="geometry">
            <mxPoint x="540" y="1155" as="sourcePoint" />
            <mxPoint x="620" y="620" as="targetPoint" />
            <Array as="points">
              <mxPoint x="610" y="1095" />
            </Array>
          </mxGeometry>
        </mxCell>
        <mxCell id="gb6J2o0oBsIFemRSRKfW-70" style="edgeStyle=none;curved=1;rounded=0;orthogonalLoop=1;jettySize=auto;html=1;entryX=0;entryY=0.5;entryDx=0;entryDy=0;fontSize=12;startSize=8;endSize=8;endArrow=none;endFill=0;" parent="1" source="gb6J2o0oBsIFemRSRKfW-46" target="gb6J2o0oBsIFemRSRKfW-69" edge="1">
          <mxGeometry relative="1" as="geometry" />
        </mxCell>
        <mxCell id="gb6J2o0oBsIFemRSRKfW-46" value="&lt;font style=&quot;font-size: 14px;&quot;&gt;Low level admin&lt;/font&gt;" style="shape=umlActor;verticalLabelPosition=bottom;verticalAlign=top;html=1;outlineConnect=0;" parent="1" vertex="1">
          <mxGeometry x="-20" y="390" width="30" height="60" as="geometry" />
        </mxCell>
        <mxCell id="gb6J2o0oBsIFemRSRKfW-50" style="edgeStyle=none;curved=1;rounded=0;orthogonalLoop=1;jettySize=auto;html=1;fontSize=12;startSize=8;endSize=8;endArrow=none;endFill=0;" parent="1" source="gb6J2o0oBsIFemRSRKfW-49" target="gb6J2o0oBsIFemRSRKfW-48" edge="1">
          <mxGeometry relative="1" as="geometry" />
        </mxCell>
        <mxCell id="gb6J2o0oBsIFemRSRKfW-59" style="edgeStyle=none;curved=1;rounded=0;orthogonalLoop=1;jettySize=auto;html=1;fontSize=12;startSize=8;endSize=8;" parent="1" source="gb6J2o0oBsIFemRSRKfW-49" target="gb6J2o0oBsIFemRSRKfW-46" edge="1">
          <mxGeometry relative="1" as="geometry" />
        </mxCell>
        <mxCell id="gb6J2o0oBsIFemRSRKfW-49" value="&lt;font style=&quot;font-size: 14px;&quot;&gt;Top level admin&lt;/font&gt;" style="shape=umlActor;verticalLabelPosition=bottom;verticalAlign=top;html=1;outlineConnect=0;" parent="1" vertex="1">
          <mxGeometry x="-20" y="240" width="30" height="60" as="geometry" />
        </mxCell>
        <mxCell id="gb6J2o0oBsIFemRSRKfW-58" style="edgeStyle=none;curved=1;rounded=0;orthogonalLoop=1;jettySize=auto;html=1;fontSize=12;startSize=8;endSize=8;" parent="1" source="k_iX1VzOe7PO-epXTxvh-12" target="gb6J2o0oBsIFemRSRKfW-49" edge="1">
          <mxGeometry relative="1" as="geometry">
            <Array as="points">
              <mxPoint x="180" y="290" />
            </Array>
          </mxGeometry>
        </mxCell>
        <mxCell id="gb6J2o0oBsIFemRSRKfW-87" style="edgeStyle=none;curved=1;rounded=0;orthogonalLoop=1;jettySize=auto;html=1;entryX=0;entryY=0.3333333333333333;entryDx=0;entryDy=0;entryPerimeter=0;fontSize=12;startSize=8;endSize=8;" parent="1" source="k_iX1VzOe7PO-epXTxvh-11" target="k_iX1VzOe7PO-epXTxvh-8" edge="1">
          <mxGeometry relative="1" as="geometry">
            <Array as="points">
              <mxPoint x="350" y="500" />
            </Array>
          </mxGeometry>
        </mxCell>
        <mxCell id="gb6J2o0oBsIFemRSRKfW-93" style="edgeStyle=none;curved=1;rounded=0;orthogonalLoop=1;jettySize=auto;html=1;entryX=1;entryY=0.5;entryDx=0;entryDy=0;fontSize=12;startSize=8;endSize=8;endArrow=none;endFill=0;" parent="1" source="gb6J2o0oBsIFemRSRKfW-92" target="gb6J2o0oBsIFemRSRKfW-88" edge="1">
          <mxGeometry relative="1" as="geometry" />
        </mxCell>
        <mxCell id="gb6J2o0oBsIFemRSRKfW-92" value="&lt;font style=&quot;font-size: 14px;&quot;&gt;Low lvl tech&lt;/font&gt;" style="shape=umlActor;verticalLabelPosition=bottom;verticalAlign=top;html=1;outlineConnect=0;" parent="1" vertex="1">
          <mxGeometry x="780" y="640" width="30" height="60" as="geometry" />
        </mxCell>
        <mxCell id="gb6J2o0oBsIFemRSRKfW-99" style="edgeStyle=none;curved=1;rounded=0;orthogonalLoop=1;jettySize=auto;html=1;fontSize=12;startSize=8;endSize=8;" parent="1" source="gb6J2o0oBsIFemRSRKfW-95" target="gb6J2o0oBsIFemRSRKfW-92" edge="1">
          <mxGeometry relative="1" as="geometry" />
        </mxCell>
        <mxCell id="gb6J2o0oBsIFemRSRKfW-112" style="edgeStyle=none;curved=1;rounded=0;orthogonalLoop=1;jettySize=auto;html=1;entryX=1;entryY=0;entryDx=0;entryDy=0;fontSize=12;startSize=8;endSize=8;endArrow=none;endFill=0;" parent="1" source="gb6J2o0oBsIFemRSRKfW-95" target="gb6J2o0oBsIFemRSRKfW-111" edge="1">
          <mxGeometry relative="1" as="geometry" />
        </mxCell>
        <mxCell id="gb6J2o0oBsIFemRSRKfW-97" style="edgeStyle=none;curved=1;rounded=0;orthogonalLoop=1;jettySize=auto;html=1;entryX=1;entryY=0;entryDx=0;entryDy=0;fontSize=12;startSize=8;endSize=8;endArrow=none;endFill=0;" parent="1" source="gb6J2o0oBsIFemRSRKfW-95" target="gb6J2o0oBsIFemRSRKfW-98" edge="1">
          <mxGeometry relative="1" as="geometry">
            <mxPoint x="840" y="359" as="sourcePoint" />
            <Array as="points">
              <mxPoint x="700" y="380" />
            </Array>
          </mxGeometry>
        </mxCell>
        <mxCell id="gb6J2o0oBsIFemRSRKfW-95" value="&lt;font style=&quot;font-size: 14px;&quot;&gt;Top lvl tech&lt;/font&gt;" style="shape=umlActor;verticalLabelPosition=bottom;verticalAlign=top;html=1;outlineConnect=0;" parent="1" vertex="1">
          <mxGeometry x="750" y="180" width="30" height="60" as="geometry" />
        </mxCell>
        <mxCell id="gb6J2o0oBsIFemRSRKfW-128" value="Chaque CU encadrer en rouge:&lt;br&gt;&lt;b&gt;&amp;lt;&amp;lt;include&amp;gt;&amp;gt;&amp;nbsp;&lt;/b&gt;&lt;br&gt;&lt;b&gt;Valider authentification&lt;/b&gt;" style="shape=note;strokeWidth=2;fontSize=14;size=20;whiteSpace=wrap;html=1;fillColor=#fff2cc;strokeColor=#fa0000;fontColor=#666600;" parent="1" vertex="1">
          <mxGeometry x="810" y="140" width="130" height="110" as="geometry" />
        </mxCell>
        <mxCell id="gb6J2o0oBsIFemRSRKfW-129" value="Chaque UC qui a un remplissage vert est abstrait et signifie les opérations CRUD de base + archivage" style="shape=note;strokeWidth=2;fontSize=14;size=20;whiteSpace=wrap;html=1;fillColor=#d5e8d4;strokeColor=#82b366;" parent="1" vertex="1">
          <mxGeometry x="800" y="280" width="140" height="120" as="geometry" />
        </mxCell>
        <mxCell id="gb6J2o0oBsIFemRSRKfW-131" style="edgeStyle=none;curved=1;rounded=0;orthogonalLoop=1;jettySize=auto;html=1;fontSize=12;startSize=8;endSize=8;dashed=1;endArrow=none;endFill=0;" parent="1" source="gb6J2o0oBsIFemRSRKfW-130" target="gb6J2o0oBsIFemRSRKfW-95" edge="1">
          <mxGeometry relative="1" as="geometry" />
        </mxCell>
        <mxCell id="gb6J2o0oBsIFemRSRKfW-130" value="Top lvl Tech" style="shape=note;strokeWidth=2;fontSize=14;size=20;whiteSpace=wrap;html=1;fillColor=#fff2cc;strokeColor=#d6b656;fontColor=#666600;" parent="1" vertex="1">
          <mxGeometry x="610" y="140" width="120" height="30" as="geometry" />
        </mxCell>
        <mxCell id="_D2f0YXhVKk2fQoGpz2m-1" value="&lt;font style=&quot;font-size: 14px;&quot;&gt;Personne&lt;/font&gt;" style="shape=umlActor;verticalLabelPosition=bottom;verticalAlign=top;html=1;outlineConnect=0;" parent="1" vertex="1">
          <mxGeometry y="860" width="30" height="60" as="geometry" />
        </mxCell>
      </root>
    </mxGraphModel>
  </diagram>
</mxfile>
